<?xml version="1.0" standalone="no"?>
<!DOCTYPE svg PUBLIC "-//W3C//DTD SVG 20010904//EN"
 "http://www.w3.org/TR/2001/REC-SVG-20010904/DTD/svg10.dtd">
<svg version="1.0" xmlns="http://www.w3.org/2000/svg"
 width="78.000000pt" height="55.000000pt" viewBox="0 0 78.000000 55.000000"
 preserveAspectRatio="xMidYMid meet">

<g transform="translate(0.000000,55.000000) scale(0.100000,-0.100000)"
fill="#000000" stroke="none">
<path d="M239 507 c-140 -49 -209 -125 -209 -232 0 -50 5 -69 29 -106 78 -125
305 -185 482 -129 71 22 97 36 87 45 -4 4 -36 -5 -72 -19 -36 -15 -86 -29
-111 -32 l-45 -7 0 247 0 246 25 0 25 0 1 -142 c0 -79 0 -178 -1 -221 -1 -74
0 -77 22 -77 60 0 191 92 173 121 -5 7 -4 10 2 6 12 -8 23 14 23 44 0 14 7 19
25 19 28 0 34 -25 14 -62 -9 -16 -8 -24 5 -36 14 -14 17 -12 31 21 19 45 19
117 1 160 -19 47 -108 122 -174 148 -42 16 -86 23 -162 26 -91 3 -114 1 -171
-20z m139 -14 c-2 -13 -17 -20 -52 -25 -191 -27 -274 -189 -158 -311 31 -32
120 -77 152 -77 6 0 10 41 10 95 0 95 0 95 25 95 l25 0 0 -121 0 -122 -40 7
c-54 8 -141 42 -181 69 -59 41 -92 91 -97 151 -6 74 2 99 45 147 41 45 73 65
153 90 74 24 123 25 118 2z"/>
<path d="M665 130 c-3 -5 1 -10 9 -10 9 0 16 5 16 10 0 6 -4 10 -9 10 -6 0
-13 -4 -16 -10z"/>
</g>
</svg>
